<?xml version="1.0" standalone="no"?>
<!DOCTYPE svg PUBLIC "-//W3C//DTD SVG 20010904//EN"
 "http://www.w3.org/TR/2001/REC-SVG-20010904/DTD/svg10.dtd">
<svg version="1.0" xmlns="http://www.w3.org/2000/svg"
 width="400.000000pt" height="400.000000pt" viewBox="0 0 400.000000 400.000000"
 preserveAspectRatio="xMidYMid meet">
<metadata>
Created by potrace 1.11, written by Peter Selinger 2001-2013
</metadata>
<g transform="translate(0.000000,400.000000) scale(0.100000,-0.100000)"
fill="#000000" stroke="none">
<path d="M1553 3047 l-253 -151 0 -311 0 -310 100 -63 c55 -34 103 -62 106
-62 17 0 153 86 151 94 -2 6 -47 37 -100 70 l-97 61 0 212 0 212 143 84 c78
46 160 95 183 107 l40 23 182 -109 182 -109 0 -215 0 -215 -100 -59 c-55 -32
-100 -61 -100 -65 0 -6 127 -84 146 -89 6 -2 57 25 113 58 l101 62 -2 311 -3
312 -260 152 c-142 84 -264 153 -270 152 -5 0 -124 -69 -262 -152z"/>
<path d="M1797 2688 l-97 -60 2 -311 3 -311 250 -148 c138 -81 257 -150 267
-153 10 -4 112 51 272 147 l256 152 0 311 0 310 -100 63 c-55 34 -103 62 -106
62 -17 0 -153 -86 -151 -94 2 -6 47 -37 100 -70 l97 -61 0 -212 0 -212 -142
-84 c-79 -46 -161 -95 -184 -107 l-40 -23 -182 109 -182 109 0 215 0 215 100
59 c55 32 100 61 100 65 -1 9 -140 91 -154 90 -6 0 -55 -28 -109 -61z"/>
<path d="M1208 2080 c-118 -132 -196 -281 -242 -466 -39 -153 -57 -268 -63
-400 -8 -174 -23 -164 258 -164 121 0 218 -4 215 -9 -3 -4 -10 -50 -16 -100
-12 -104 -2 -164 30 -181 12 -6 315 -10 878 -10 757 0 861 2 872 15 22 27 7
363 -24 525 -61 324 -142 469 -342 607 l-30 22 -73 -43 c-40 -24 -73 -46 -74
-49 -1 -3 26 -24 60 -47 78 -52 170 -152 211 -228 62 -117 122 -387 122 -553
l0 -89 -736 0 -737 0 7 63 c11 98 45 270 72 365 46 158 135 296 259 402 28 24
51 46 53 50 3 8 -121 90 -137 90 -14 0 -136 -134 -179 -197 -79 -117 -143
-266 -175 -408 l-14 -60 -172 -3 -172 -2 6 62 c10 100 24 176 52 282 52 201
113 314 235 442 l80 83 -71 35 c-39 20 -75 36 -80 36 -5 0 -38 -32 -73 -70z"/>
</g>
</svg>
