<svg xmlns="http://www.w3.org/2000/svg" width="434" height="434" fill="none" viewBox="0 0 434 434"><circle cx="217" cy="217" r="217" fill="#000"/><path fill="#fff" d="M189.036 62.332C192.485 60.2771 196.78 60.2652 200.242 62.3007L247.802 90.2729C251.149 92.2413 253.211 95.8286 253.226 99.7115L253.442 154.952C253.457 158.831 251.428 162.431 248.102 164.427L234.751 172.439C231.982 174.101 228.519 174.086 225.764 172.401V172.401C220.182 168.987 220.248 160.856 225.885 157.533L230.977 154.532C234.331 152.554 236.391 148.95 236.391 145.056V109.836C236.391 105.96 234.35 102.37 231.02 100.386L200.884 82.4324C197.438 80.3798 193.149 80.365 189.689 82.3937L159.906 99.8594C156.539 101.834 154.471 105.445 154.471 109.348V144.216C154.471 147.977 156.391 151.476 159.564 153.496L165.229 157.102C170.837 160.672 170.734 168.894 165.038 172.321V172.321C162.16 174.053 158.554 174.028 155.701 172.256L142.464 164.037C139.232 162.03 137.267 158.496 137.267 154.692V99.4203C137.267 95.5439 139.307 91.9537 142.637 89.9699L189.036 62.332Z"/><path fill="#fff" d="M245.965 221.585C242.515 223.641 238.219 223.653 234.758 221.617L187.198 193.645C183.851 191.677 181.789 188.09 181.774 184.207L181.558 128.957C181.543 125.078 183.572 121.477 186.899 119.481L200.239 111.478C203.008 109.817 206.471 109.831 209.226 111.516V111.516C214.812 114.93 214.747 123.065 209.107 126.39L204.023 129.387C200.669 131.364 198.609 134.968 198.609 138.863V174.074C198.609 177.949 200.649 181.539 203.978 183.523L234.115 201.484C237.561 203.538 241.852 203.553 245.312 201.523L275.085 184.059C278.452 182.084 280.52 178.474 280.52 174.571V139.701C280.52 135.941 278.6 132.442 275.428 130.422L269.769 126.818C264.161 123.247 264.265 115.025 269.962 111.597V111.597C272.84 109.865 276.446 109.89 279.3 111.663L292.536 119.882C295.768 121.888 297.733 125.423 297.733 129.227V184.489C297.733 188.365 295.694 191.955 292.364 193.939L245.965 221.585Z"/><path fill="#fff" d="M184.889 209.148C187.486 206.619 191.471 206.296 194.565 208.187V208.187C199.593 211.261 199.887 218.486 195.556 222.483C184.445 232.738 178.532 242.755 175.348 249.221C169.72 260.668 167.465 271.757 164.746 285.118C163.693 290.292 162.811 295.496 162.099 300.724C161.231 307.099 166.295 312.618 172.729 312.638L314.335 313.094C320.331 313.113 325.274 308.323 325.04 302.332C324.605 291.202 323.124 280.127 320.612 269.254C317.592 256.131 315.186 246.319 307.937 235.57C303.608 229.235 298.358 223.603 292.378 218.845C287.514 214.975 287.352 207.04 292.672 203.825V203.825C295.196 202.3 298.373 202.259 300.82 203.905C307.852 208.634 314.115 214.412 319.384 221.042C331.245 236.079 334.305 251.265 338.061 271.128C341.399 288.874 342.622 306.946 341.705 324.974C341.668 326.192 341.206 327.358 340.397 328.275C339.391 329.354 337.983 329.977 336.5 330H152.023C150.893 330 149.749 329.868 148.745 329.35C146.921 328.411 145.429 326.938 144.474 325.132C144.008 324.252 143.838 323.254 143.791 322.26C143.598 318.224 143.677 314.185 144.024 310.169C144.644 302.986 139.312 296.209 132.103 296.303L100.938 296.71C99.6826 296.727 98.4043 296.579 97.3138 295.957C95.9552 295.181 94.8012 294.098 93.9467 292.798C93.1954 291.655 92.9979 290.26 93.0137 288.892C93.1639 275.889 94.5274 262.926 97.0877 250.168C100.672 232.409 105.223 211.02 121.251 190.339C124.397 186.275 127.826 182.436 131.512 178.851C133.875 176.553 137.447 176.123 140.385 177.617V177.617C145.608 180.271 146.356 187.488 142.28 191.696C139.715 194.344 137.303 197.136 135.055 200.062C122.621 216.275 118.483 232.489 115.13 246.22C113.363 253.473 112.072 260.828 111.264 268.238C110.581 274.506 115.693 279.739 121.997 279.663L139.901 279.446C145.203 279.382 149.657 275.537 150.884 270.378C154.562 254.904 161.991 235.094 177.603 216.903C179.915 214.212 182.346 211.624 184.889 209.148Z"/></svg>