<?xml version="1.0" encoding="UTF-8"?>
<svg width="80px" height="80px" viewBox="0 0 80 80" version="1.1" xmlns="http://www.w3.org/2000/svg" xmlns:xlink="http://www.w3.org/1999/xlink">
    <!-- Generator: Sketch 49.3 (51167) - http://www.bohemiancoding.com/sketch -->
    <title>meetup_logo</title>
    <desc>Created with Sketch.</desc>
    <defs>
        <path d="M40,0 C62.091,0 80,17.909 80,40 C80,62.091 62.091,80 40,80 C17.909,80 0,62.091 0,40 C0,17.909 17.909,0 40,0 Z" id="path-1"></path>
    </defs>
    <g id="Page-1" stroke="none" stroke-width="1" fill="none" fill-rule="evenodd">
        <g id="meetup_logo">
            <g id="Shape" fill="#FFFFFF" fill-rule="nonzero">
                <path d="M40,0 C62.091,0 80,17.909 80,40 C80,62.091 62.091,80 40,80 C17.909,80 0,62.091 0,40 C0,17.909 17.909,0 40,0 Z" id="path-1"></path>
            </g>
            <g id="logo_meetup_blockchain-Clipped">
                <g>
                    <mask id="mask-2" fill="white">
                        <use xlink:href="#path-1"></use>
                    </mask>
                    <g id="path-1"></g>
                    <g id="logo_meetup_blockchain" mask="url(#mask-2)">
                        <g transform="translate(18.000000, 16.000000)" id="Shape">
                            <g>
                                <g id="Group" fill="#212529" fill-rule="nonzero">
                                    <polygon id="Shape" points="18.3667513 0 28.9520305 6.22863028 29 18.4804325 24.8035533 21 21.7672589 19.1418641 25.9139594 16.6961895 25.9139594 8.0615345 18.4875635 3.63516993 11.1091371 7.96421215 11.1091371 16.4997425 15.2576142 19.1418641 12.1715736 21 8 18.4083419 8 6.17816684"></polygon>
                                    <polygon id="Shape" points="26.6332487 30 16.0479695 23.7713697 16 11.5177652 20.1946701 9 23.2327411 10.8581359 19.0860406 13.3038105 19.0860406 21.9366632 26.5124365 26.3648301 33.8890863 22.0357878 33.8890863 13.5002575 29.7423858 10.8581359 32.8284264 9 37 11.5916581 37 23.8200309"></polygon>
                                    <path d="M17.4150041,26.3998712 L20.2626147,28.1415325 C17.1038594,30.4475209 15.6045423,32.9265937 14.8821772,34.3942048 C13.8650435,36.4640052 13.4574621,38.4688989 12.9661811,40.884868 C12.6323013,42.5263765 12.3929457,44.1853784 12.2492746,45.8538313 L41.951764,45.9493883 C42.0097524,43.2818135 41.735352,40.6173403 41.1347818,38.0163554 C40.588914,35.6436574 40.1540392,33.8695428 38.8439564,31.9259498 C37.5821005,30.0783163 35.8869825,28.5613676 33.9038523,27.5050869 L36.8260649,25.7381842 C38.396336,26.6678795 39.7814411,27.8747491 40.9127955,29.2990341 C43.0562367,32.0179008 43.6093827,34.763812 44.2880784,38.3553123 C44.891297,41.5639321 45.1123695,44.8316175 44.946759,48.0913071 C44.9400734,48.3113818 44.8564628,48.5223253 44.7102162,48.6880876 C44.5284649,48.8831679 44.2739584,48.9959017 44.0060467,49 L10.3587523,49 C9.81281026,48.8265769 9.38128405,48.4083405 9.1942342,47.8713458 C9.08630667,46.1924511 9.23786547,44.5070715 9.6436654,42.8735351 L1.09173571,42.9853187 C0.590071667,42.8142199 0.190429665,42.4320832 0,41.9414037 C0.00407648294,39.4648344 0.25149072,36.9945416 0.73874116,34.5654862 C1.38650435,31.3544108 2.20894524,27.4870573 5.10568398,23.7477141 C5.8752941,22.7529092 6.73861747,21.8328645 7.6839998,21 L10.5807385,22.47302 C9.46670349,23.3602471 8.46585677,24.3786039 7.60030007,25.5056021 C5.35314407,28.4372183 4.60530512,31.3688345 3.9993918,33.8515132 C3.51443207,35.8430239 3.2279935,37.8769072 3.14419883,39.9238892 L10.1294878,39.83915 C10.6353253,36.9093368 11.8871823,32.5173213 15.2897586,28.5508049 C15.9466856,27.7855959 16.6568344,27.0668634 17.4150041,26.3998712 Z" id="Shape"></path>
                                </g>
                            </g>
                        </g>
                    </g>
                </g>
            </g>
        </g>
    </g>
</svg>